<svg width="24" height="24" viewBox="0 0 24 24" fill="none" xmlns="http://www.w3.org/2000/svg">
<g clip-path="url(#clip0_2743_1402)">
<path d="M17.7203 11.1278C17.6 11.0677 17.5399 11.0075 17.4196 11.0075C17.2391 7.57895 15.3744 5.65414 12.2466 5.59398C12.2466 5.59398 12.2466 5.59398 12.1865 5.59398C10.3218 5.59398 8.7579 6.37594 7.79549 7.8797L9.53986 9.08271C10.2617 8 11.4045 7.7594 12.1865 7.7594C13.209 7.7594 13.991 8.06015 14.5323 8.66165C14.8932 9.08271 15.1338 9.68421 15.2541 10.406C14.3519 10.2256 13.3293 10.2256 12.3068 10.2857C9.29925 10.4662 7.37444 12.2105 7.55489 14.6165C7.61504 15.8195 8.21655 16.9023 9.29925 17.5639C10.2015 18.1654 11.3444 18.406 12.4872 18.3459C14.0511 18.2857 15.2541 17.6842 16.1564 16.6015C16.8181 15.7594 17.2391 14.6767 17.4196 13.3534C18.1414 13.7744 18.7429 14.3759 19.0436 15.0977C19.585 16.3008 19.585 18.2857 17.9609 19.9098C16.5173 21.3534 14.8331 21.9549 12.2466 21.9549C9.3594 21.9549 7.25414 20.9925 5.81053 19.2481C4.36692 17.5639 3.70527 15.0977 3.70527 12.0301C3.70527 8.96241 4.42707 6.49624 5.75038 4.87218C7.13384 3.06767 9.29925 2.16541 12.1865 2.16541C15.0737 2.16541 17.2391 3.12782 18.7429 4.93233C19.4647 5.83459 20.006 6.91729 20.3669 8.2406L22.412 7.69925C21.8707 6.01504 21.209 4.63158 20.2466 3.48872C18.382 1.20301 15.6752 0 12.1263 0C8.57745 0 5.87068 1.20301 4.06617 3.48872C2.44211 5.59398 1.60001 8.42105 1.60001 12.0301C1.60001 15.6391 2.44211 18.4662 4.06617 20.5113C5.87068 22.797 8.57745 24 12.1263 24C15.2541 24 17.4797 23.1579 19.2842 21.3534C21.6902 19.0075 21.5699 16 20.788 14.1955C20.2466 12.9323 19.1639 11.8496 17.7203 11.1278ZM12.3068 16.2406C10.9835 16.3008 9.66016 15.6992 9.60001 14.4962C9.53986 13.5338 10.2617 12.5113 12.4271 12.391C12.6677 12.391 12.9083 12.391 13.1489 12.391C13.9308 12.391 14.6526 12.4511 15.3143 12.6316C15.0135 15.6391 13.5699 16.1805 12.3068 16.2406Z" fill="black"/>
</g>
<defs>
<clipPath id="clip0_2743_1402">
<rect width="24" height="24" fill="white"/>
</clipPath>
</defs>
</svg>
