<svg width="56" height="56" viewBox="0 0 56 56" fill="none" xmlns="http://www.w3.org/2000/svg">
<g clip-path="url(#clip0_1473_3882)">
<path d="M19.25 12.25H14C13.0335 12.25 12.25 13.0335 12.25 14V42C12.25 42.9665 13.0335 43.75 14 43.75H19.25C20.2165 43.75 21 42.9665 21 42V14C21 13.0335 20.2165 12.25 19.25 12.25Z" stroke="black" stroke-width="3" stroke-linecap="round" stroke-linejoin="round"/>
<path d="M42 12.25H36.75C35.7835 12.25 35 13.0335 35 14V42C35 42.9665 35.7835 43.75 36.75 43.75H42C42.9665 43.75 43.75 42.9665 43.75 42V14C43.75 13.0335 42.9665 12.25 42 12.25Z" stroke="black" stroke-width="3" stroke-linecap="round" stroke-linejoin="round"/>
<path d="M43.75 17.5H49C49.4641 17.5 49.9092 17.6844 50.2374 18.0126C50.5656 18.3408 50.75 18.7859 50.75 19.25V36.75C50.75 37.2141 50.5656 37.6592 50.2374 37.9874C49.9092 38.3156 49.4641 38.5 49 38.5H43.75" stroke="black" stroke-width="3" stroke-linecap="round" stroke-linejoin="round"/>
<path d="M12.25 38.5H7C6.53587 38.5 6.09075 38.3156 5.76256 37.9874C5.43437 37.6592 5.25 37.2141 5.25 36.75V19.25C5.25 18.7859 5.43437 18.3408 5.76256 18.0126C6.09075 17.6844 6.53587 17.5 7 17.5H12.25" stroke="black" stroke-width="3" stroke-linecap="round" stroke-linejoin="round"/>
<path d="M21 28H35" stroke="black" stroke-width="3" stroke-linecap="round" stroke-linejoin="round"/>
<path d="M50.75 28H54.25" stroke="black" stroke-width="3" stroke-linecap="round" stroke-linejoin="round"/>
<path d="M1.75 28H5.25" stroke="black" stroke-width="3" stroke-linecap="round" stroke-linejoin="round"/>
</g>
<defs>
<clipPath id="clip0_1473_3882">
<rect width="56" height="56" fill="white"/>
</clipPath>
</defs>
</svg>
