<svg width="40" height="40" viewBox="0 0 40 40" fill="none" xmlns="http://www.w3.org/2000/svg">
<circle cx="5.21883" cy="11.4268" r="3.21493" stroke="black" stroke-width="2.5"/>
<circle cx="5.21883" cy="28.5731" r="3.21493" stroke="black" stroke-width="2.5"/>
<path d="M20.2932 10.9326C20.912 10.5753 21.6744 10.5753 22.2932 10.9326L28.6458 14.6003C29.2646 14.9575 29.6458 15.6178 29.6458 16.3323V23.6677C29.6458 24.3822 29.2646 25.0425 28.6458 25.3997L22.2932 29.0674C21.6744 29.4247 20.912 29.4247 20.2932 29.0674L13.9406 25.3997C13.3218 25.0425 12.9406 24.3822 12.9406 23.6677V16.3323C12.9406 15.6178 13.3218 14.9575 13.9406 14.6003L20.2932 10.9326Z" stroke="black" stroke-width="2.5"/>
<path d="M37.9972 10.3552L30.6445 14.6003C30.0257 14.9575 29.6445 15.6178 29.6445 16.3323V22.4761" stroke="black" stroke-width="2.5"/>
<path d="M8.01953 27.5793L12.6462 24.9262" stroke="black" stroke-width="2.5"/>
<path d="M8.01953 12.0664L12.6462 14.7196" stroke="black" stroke-width="2.5"/>
</svg>
