<svg width="56" height="56" viewBox="0 0 56 56" fill="none" xmlns="http://www.w3.org/2000/svg">
<g id="Frame" clip-path="url(#clip0_2976_383)">
<path id="Vector" d="M21 24.5H35" stroke="black" stroke-width="3" stroke-linecap="round" stroke-linejoin="round"/>
<path id="Vector_2" d="M21 31.5H30" stroke="black" stroke-width="3" stroke-linecap="round" stroke-linejoin="round"/>
<path id="Vector_3" d="M17.4846 46.1803C21.8958 48.7333 27.0849 49.595 32.0844 48.6046C37.084 47.6143 41.5527 44.8395 44.6575 40.7977C47.7623 36.7559 49.2912 31.7228 48.9592 26.637C48.6272 21.5511 46.457 16.7596 42.8531 13.1557C39.2492 9.55177 34.4576 7.38151 29.3718 7.04951C24.2859 6.71751 19.2529 8.24644 15.2111 11.3512C11.1692 14.456 8.39447 18.9248 7.40411 23.9243C6.41376 28.9239 7.2754 34.1129 9.8284 38.5241L7.09184 46.6944C6.98901 47.0028 6.97408 47.3336 7.04874 47.65C7.1234 47.9663 7.28468 48.2556 7.51452 48.4855C7.74435 48.7153 8.03366 48.8766 8.35001 48.9513C8.66635 49.0259 8.99724 49.011 9.30559 48.9082L17.4846 46.1803Z" stroke="black" stroke-width="3" stroke-linecap="round" stroke-linejoin="round"/>
</g>
<defs>
<clipPath id="clip0_2976_383">
<rect width="56" height="56" fill="white"/>
</clipPath>
</defs>
</svg>
