<svg width="41" height="40" viewBox="0 0 41 40" fill="none" xmlns="http://www.w3.org/2000/svg">
<g clip-path="url(#clip0_1473_3702)">
<path d="M20.334 25V13.75" stroke="black" stroke-width="2.5" stroke-linecap="round" stroke-linejoin="round"/>
<path d="M20.334 32.5C22.4051 32.5 24.084 30.8211 24.084 28.75C24.084 26.6789 22.4051 25 20.334 25C18.2629 25 16.584 26.6789 16.584 28.75C16.584 30.8211 18.2629 32.5 20.334 32.5Z" stroke="black" stroke-width="2.5" stroke-linecap="round" stroke-linejoin="round"/>
<path d="M15.334 7.5C15.334 6.17392 15.8608 4.90215 16.7985 3.96447C17.7361 3.02678 19.0079 2.5 20.334 2.5C21.6601 2.5 22.9318 3.02678 23.8695 3.96447C24.8072 4.90215 25.334 6.17392 25.334 7.5V21.5625C26.8627 22.627 28.0118 24.1515 28.6141 25.9143C29.2163 27.6771 29.2403 29.5861 28.6824 31.3634C28.1246 33.1408 27.0141 34.6937 25.5126 35.7962C24.011 36.8987 22.1968 37.4932 20.334 37.4932C18.4712 37.4932 16.6569 36.8987 15.1554 35.7962C13.6539 34.6937 12.5434 33.1408 11.9855 31.3634C11.4277 29.5861 11.4516 27.6771 12.0539 25.9143C12.6561 24.1515 13.8053 22.627 15.334 21.5625V7.5Z" stroke="black" stroke-width="2.5" stroke-linecap="round" stroke-linejoin="round"/>
</g>
<defs>
<clipPath id="clip0_1473_3702">
<rect width="40" height="40" fill="white" transform="translate(0.333984)"/>
</clipPath>
</defs>
</svg>
