<svg width="24" height="25" viewBox="0 0 24 25" fill="none" xmlns="http://www.w3.org/2000/svg">
<path fill-rule="evenodd" clip-rule="evenodd" d="M16.8251 1.99532C17.1172 3.5337 18.0516 4.85533 19.3468 5.68004L19.3481 5.68136C20.2508 6.25627 21.3253 6.59196 22.4791 6.59196V10.6309C20.3354 10.6309 18.349 9.96081 16.7273 8.82289V17.0342C16.7273 21.1339 13.3148 24.4697 9.11865 24.4697C7.497 24.4697 5.9943 23.9702 4.75857 23.123L4.75593 23.1203C2.79462 21.7736 1.50999 19.548 1.50999 17.0329C1.50999 12.9332 4.92378 9.59604 9.11865 9.59604C9.46756 9.59604 9.80854 9.62512 10.1442 9.66873V10.6269C6.31678 10.7141 3.1779 13.5755 2.76158 17.2298C3.17922 13.5755 6.31678 10.7141 10.1442 10.6269V13.7949C9.81912 13.6958 9.47681 13.6376 9.11865 13.6376C7.20228 13.6376 5.64407 15.1614 5.64407 17.0342C5.64407 18.3373 6.40137 19.4713 7.50625 20.0396C7.98865 20.2881 8.53713 20.4295 9.11865 20.4295C10.9901 20.4295 12.5179 18.9744 12.5866 17.1611L12.5932 0.969727H16.7273C16.7273 1.31996 16.7617 1.66226 16.8251 1.99532Z" fill="black"/>
</svg>
